<?xml version="1.0" encoding="UTF-8"?>
<svg id="_Слой_1" data-name="Слой_1" xmlns="http://www.w3.org/2000/svg" version="1.1" viewBox="0 0 30 30">
  <!-- Generator: Adobe Illustrator 29.8.1, SVG Export Plug-In . SVG Version: 2.1.1 Build 2)  -->
  <rect x=".5" y="4.03" width="29" height="21.94" rx="5.42" ry="5.42" fill="#e6e6e6"/>
  <path d="M14,14.71l-3.83-3.83c-.26-.26-.68-.26-.94,0s-.26.68,0,.94l2.7,2.7h-6.21c-.37,0-.67.3-.67.67s.3.67.67.67h6.21l-2.7,2.7c-.26.26-.26.68,0,.94.13.13.3.2.47.2s.34-.07.47-.2l3.83-3.84c.12-.12.2-.29.2-.47s-.07-.35-.2-.47Z"/>
  <path d="M24.16,18.6l-3.65-8.19c-.11-.24-.35-.39-.61-.39h0c-.27,0-.5.16-.61.41l-3.5,8.41c-.14.34.02.73.36.87.08.03.17.05.26.05.26,0,.51-.15.62-.41l.89-2.14h4.17l.86,1.93c.15.34.55.49.88.34.34-.15.49-.54.34-.88ZM18.46,15.88l1.46-3.51,1.57,3.51h-3.03Z"/>
</svg>